<?xml version="1.0" encoding="UTF-8" standalone="no"?>
<!-- Created with Inkscape (http://www.inkscape.org/) -->

<svg
   width="1280"
   height="720"
   viewBox="0 0 1280 720"
   version="1.1"
   id="svg5"
   inkscape:version="1.3 (0e150ed6c4, 2023-07-21)"
   sodipodi:docname="AGAIn.svg"
   xmlns:inkscape="http://www.inkscape.org/namespaces/inkscape"
   xmlns:sodipodi="http://sodipodi.sourceforge.net/DTD/sodipodi-0.dtd"
   xmlns="http://www.w3.org/2000/svg"
   xmlns:svg="http://www.w3.org/2000/svg">
  <sodipodi:namedview
     id="namedview7"
     pagecolor="#505050"
     bordercolor="#eeeeee"
     borderopacity="1"
     inkscape:showpageshadow="0"
     inkscape:pageopacity="0"
     inkscape:pagecheckerboard="0"
     inkscape:deskcolor="#505050"
     inkscape:document-units="px"
     showgrid="false"
     inkscape:zoom="0.66190376"
     inkscape:cx="590.72032"
     inkscape:cy="355.03651"
     inkscape:window-width="1920"
     inkscape:window-height="1009"
     inkscape:window-x="0"
     inkscape:window-y="27"
     inkscape:window-maximized="1"
     inkscape:current-layer="layer1" />
  <defs
     id="defs2" />
  <g
     inkscape:label="Layer 1"
     inkscape:groupmode="layer"
     id="layer1">
    <g
       id="g14">
      <g
         id="g13"
         transform="matrix(0.87565193,0,0,0.87565193,90.42619,49.156695)"
         style="fill:#ff4949;fill-opacity:0.253889">
        <g
           id="g12"
           transform="translate(8.4604076,-4.2302038)"
           style="fill:#ff4949;fill-opacity:0.253889">
          <path
             id="path7"
             style="fill:#ff4949;fill-opacity:0.253889;stroke:none;stroke-width:10;stroke-linecap:round;stroke-linejoin:round;paint-order:markers stroke fill"
             d="M 193.31932,76.362999 157.42479,542.99386 205.28417,411.37862 295.0205,387.44894 426.63378,513.08175 Z m 19.86915,101.701171 68.79882,155.54297 -70.29297,8.97461 z" />
          <path
             id="path8"
             style="fill:#ff4949;fill-opacity:0.253889;stroke:none;stroke-width:10;stroke-linecap:round;stroke-linejoin:round;paint-order:markers stroke fill"
             d="m 642.08761,276.17368 -274.96484,21.15039 86.71874,192.47461 135.36719,2.11523 12.69141,105.75586 -97.29492,74.0293 158.63281,-38.07226 z m -16.92188,54.99219 -29.61132,107.87109 -86.71875,-2.11523 -57.10938,-95.17969 z" />
          <path
             id="path9"
             style="fill:#ff4949;fill-opacity:0.253889;stroke:none;stroke-width:10;stroke-linecap:round;stroke-linejoin:round;paint-order:markers stroke fill"
             d="m 656.89363,278.28825 29.61133,203.05078 135.36718,29.61133 -31.72656,-59.22265 19.03516,-118.44727 z m 40.18554,48.64649 65.57032,19.03711 -4.23047,109.98633 z" />
          <path
             style="fill:#ff4949;fill-opacity:0.253889;stroke:none;stroke-width:10;stroke-linecap:round;stroke-linejoin:round;paint-order:markers stroke fill"
             d="m 845.13791,506.72014 -16.92081,-177.6693 42.30222,-6.34535 16.92081,184.01465 z"
             id="path10" />
          <path
             style="fill:#ff4949;fill-opacity:0.253889;stroke:none;stroke-width:10;stroke-linecap:round;stroke-linejoin:round;paint-order:markers stroke fill"
             d="m 923.3971,506.72014 -14.80585,-188.24486 173.43915,23.26617 23.2663,190.36 -50.7628,-2.11505 -16.9208,-145.94273 -71.91378,-23.26616 z"
             id="path11" />
          <path
             style="fill:#ff4949;fill-opacity:0.253889;stroke:none;stroke-width:10;stroke-linecap:round;stroke-linejoin:round;paint-order:markers stroke fill"
             d="m 851.48326,246.56145 -52.87777,-137.48222 78.25909,-6.34531 z"
             id="path12" />
        </g>
      </g>
      <g
         id="g7"
         transform="translate(12.690704,-12.690657)">
        <g
           id="g6"
           transform="translate(8.4604076,-4.2302038)"
           style="fill:#ff4949;fill-opacity:1">
          <path
             id="path1"
             style="fill:#ff4949;fill-opacity:1;stroke:none;stroke-width:10;stroke-linecap:round;stroke-linejoin:round;paint-order:markers stroke fill"
             d="M 193.31932,76.362999 157.42479,542.99386 205.28417,411.37862 295.0205,387.44894 426.63378,513.08175 Z m 19.86915,101.701171 68.79882,155.54297 -70.29297,8.97461 z" />
          <path
             id="path2"
             style="fill:#ff4949;fill-opacity:1;stroke:none;stroke-width:10;stroke-linecap:round;stroke-linejoin:round;paint-order:markers stroke fill"
             d="m 642.08761,276.17368 -274.96484,21.15039 86.71874,192.47461 135.36719,2.11523 12.69141,105.75586 -97.29492,74.0293 158.63281,-38.07226 z m -16.92188,54.99219 -29.61132,107.87109 -86.71875,-2.11523 -57.10938,-95.17969 z" />
          <path
             id="path3"
             style="fill:#ff4949;fill-opacity:1;stroke:none;stroke-width:10;stroke-linecap:round;stroke-linejoin:round;paint-order:markers stroke fill"
             d="m 656.89363,278.28825 29.61133,203.05078 135.36718,29.61133 -31.72656,-59.22265 19.03516,-118.44727 z m 40.18554,48.64649 65.57032,19.03711 -4.23047,109.98633 z" />
          <path
             style="fill:#ff4949;fill-opacity:1;stroke:none;stroke-width:10;stroke-linecap:round;stroke-linejoin:round;paint-order:markers stroke fill"
             d="m 845.13791,506.72014 -16.92081,-177.6693 42.30222,-6.34535 16.92081,184.01465 z"
             id="path4" />
          <path
             style="fill:#ff4949;fill-opacity:1;stroke:none;stroke-width:10;stroke-linecap:round;stroke-linejoin:round;paint-order:markers stroke fill"
             d="m 923.3971,506.72014 -14.80585,-188.24486 173.43915,23.26617 23.2663,190.36 -50.7628,-2.11505 -16.9208,-145.94273 -71.91378,-23.26616 z"
             id="path5" />
          <path
             style="fill:#ff4949;fill-opacity:1;stroke:none;stroke-width:10;stroke-linecap:round;stroke-linejoin:round;paint-order:markers stroke fill"
             d="m 851.48326,246.56145 -52.87777,-137.48222 78.25909,-6.34531 z"
             id="path6" />
        </g>
      </g>
    </g>
  </g>
</svg>
